<svg width="540" height="76" viewBox="0 0 540 76" fill="none" xmlns="http://www.w3.org/2000/svg">
<g clip-path="url(#clip0_3308_2109)">
<path d="M221.406 1.85995V2.69907H223.068C228.086 2.69907 228.096 8.148 228.096 10.8247V66.4718C228.096 71.0816 228.158 74.523 223.453 74.523H222.487V75.4152H250.202C254.897 75.4807 259.557 74.5776 263.903 72.7598C267.934 71.0428 271.55 68.4475 274.499 65.1547C277.517 61.6999 279.827 57.6621 281.293 53.2796C282.952 48.2953 283.767 43.0579 283.703 37.7932C283.761 32.8086 282.927 27.8553 281.241 23.1777C279.708 18.9503 277.359 15.0816 274.333 11.8019C271.351 8.61314 267.739 6.111 263.737 4.46227C259.484 2.71729 254.94 1.83349 250.358 1.85995M274.354 40.5123C274.48 45.9508 273.886 51.3817 272.588 56.6573C271.69 60.3428 270.072 63.8043 267.83 66.8329C266.017 69.2082 263.613 71.0422 260.87 72.1438C258.173 73.1731 255.314 73.6915 252.435 73.6733L238.567 73.4184V3.63378H252.435C255.279 3.62542 258.098 4.16597 260.746 5.22703C263.476 6.34807 265.887 8.1523 267.757 10.4742C270.003 13.3351 271.644 16.6406 272.577 20.1824C273.861 25.0268 274.456 30.035 274.343 35.0528L274.354 40.5123Z" fill="white"/>
<path d="M298.141 2.69849H299.907C304.966 2.69849 304.862 8.15804 304.862 10.8453V66.6411C304.758 69.0948 304.062 74.5224 299.844 74.5224H298.141V75.4147H321.867V74.5437H320.153C316.714 74.5437 315.613 70.9111 315.27 68.245C315.27 68.245 315.27 25.2484 315.27 10.8878C315.27 8.15804 315.094 2.69849 320.298 2.69849H321.908V1.85938H298.141V2.69849Z" fill="white"/>
<path d="M395.274 75.4147V74.48H395.066C392.085 74.48 390.288 71.8883 389.27 69.5515L388.231 66.28L388.138 65.8551C388.138 65.8551 388.137 65.9932 388.21 66.2057L367.278 1.85938H365.99L344.726 67.2997C343.802 69.7958 341.547 74.4693 337.558 74.4693H336.062V75.4147H349.307V74.48C345.235 74.48 346.004 69.6365 346.637 67.2147L351.229 52.8329H372.742L377.531 67.8308C378.196 70.3694 378.684 74.48 374.934 74.48H373.438V75.4147M351.863 51.1016L361.929 20.1818L372.202 51.0591L351.863 51.1016Z" fill="white"/>
<path d="M146.742 2.70911H148.165C153.287 2.70911 153.359 7.34017 153.359 10.3249L153.276 55.6052C153.165 58.8901 153.922 62.1449 155.468 65.0266C156.862 67.4859 158.788 69.586 161.098 71.166C163.467 72.7477 166.101 73.8676 168.869 74.4693C171.642 75.0978 174.473 75.4183 177.314 75.4253C184.101 75.4253 189.381 73.7754 193.156 70.4756C196.93 67.1758 198.821 62.219 198.828 55.6052V10.8453C198.828 8.15804 199.337 2.69849 203.783 2.69849H207.076V1.85938H188.793V2.69849H192.179C196.968 2.69849 197.134 8.15804 197.134 10.8453V55.6052C197.172 58.2084 196.717 60.7945 195.794 63.221C194.988 65.3243 193.749 67.2258 192.161 68.7964C190.573 70.3671 188.673 71.57 186.591 72.3237C184.406 73.1144 182.104 73.5098 179.786 73.4921C174.8 73.4921 170.86 71.9485 167.965 68.8611C165.07 65.7737 163.626 61.3551 163.633 55.6052V10.7285C163.633 8.15804 163.456 2.69849 168.65 2.70911H170.52V1.85938H146.742" fill="white"/>
<path d="M72.0938 11.9924H72.956C73.2053 6.2354 78.1499 3.55873 83.0011 3.55873L96.9314 3.61184C96.9314 3.61184 96.9314 51.4095 96.9314 67.342C96.9314 69.4664 96.5782 74.5117 92.8386 74.5117H90.1585V75.4146H114.144V74.5329H111.485C107.403 74.5329 107.267 69.4876 107.267 67.3527C107.267 53.0665 107.267 3.62246 107.267 3.62246C107.267 3.62246 107.267 3.56935 120.886 3.56935C125.758 3.56935 130.308 5.96985 130.931 12.003H131.783V1.84863H72.0938V11.9924Z" fill="white"/>
<path d="M58.9872 43.4868C53.8555 23.603 13.7683 30.2734 14.3812 13.2149C14.6201 6.5339 22.2137 0.776933 34.2846 1.98781C49.5134 3.52795 51.7364 12.1103 51.7364 12.1103H52.5674V2.05154C46.5553 1.04635 40.4932 0.383244 34.4092 0.0652787C18.6299 -0.61451 7.76403 3.97407 7.442 15.7535C7.27579 22.5089 11.7322 26.9063 17.8196 29.7423L40.8394 38.1441" fill="white"/>
<path d="M0 27.9053C4.1552 48.4052 45.7072 44.985 45.0631 61.1193C44.6787 71.348 34.1349 72.8776 27.5593 72.8032C15.2288 72.612 7.65595 66.4727 5.30826 59.0269H4.56033V70.3284C10.6121 73.0483 17.058 74.7382 23.6431 75.3312C34.0207 76.2659 51.9399 73.9291 51.9399 58.4214C51.9399 51.1243 48.4184 46.7376 40.8248 43.0624L17.8154 34.5651" fill="white"/>
<path d="M488.836 52.7904H521.922V67.3847C521.756 69.987 520.883 74.5118 516.935 74.5118H514.91V75.4147H538.626V74.5437H536.621C532.59 74.5437 531.77 69.8914 531.624 67.3103V52.8223H539.353L538.626 51.1016H531.624L531.458 1.85938H530.055M521.922 51.1016H493.999L521.953 16.7085L521.922 51.1016Z" fill="white"/>
<path d="M434.031 71.1656C439.754 73.6571 445.863 75.0954 452.075 75.4143C463.284 75.6373 470.711 73.8741 476.913 68.712C479.316 66.622 481.237 64.0146 482.539 61.0766C483.841 58.1385 484.492 54.9425 484.444 51.7173C483.831 35.721 470.711 28.4026 455.285 28.4026C449.606 28.2693 443.986 29.6143 438.955 32.3114L442.788 11.9921H477.713L485.379 1.91211H442.113L436.036 34.6057L436.929 35.0093C441.542 32.1518 446.849 30.6794 452.241 30.7607C464.967 30.7607 475.303 38.6738 474.555 52.96C473.828 66.9488 461.466 72.164 450.05 72.6951C442.487 73.0457 434.042 69.9866 434.042 69.9866" fill="white"/>
</g>
<defs>
<clipPath id="clip0_3308_2109">
<rect width="539.355" height="75.5097" fill="white"/>
</clipPath>
</defs>
</svg>
