<svg width="32" height="32" viewBox="0 0 32 32" fill="none" xmlns="http://www.w3.org/2000/svg">
<path fill-rule="evenodd" clip-rule="evenodd" d="M16 0C7.16344 0 0 7.16344 0 16C0 24.8366 7.16344 32 16 32C24.8366 32 32 24.8366 32 16C32 7.16344 24.8366 0 16 0ZM8 15.68C8 12.0596 8 10.2494 9.12471 9.12471C10.2494 8 12.0596 8 15.68 8H16.32C19.9404 8 21.7506 8 22.8753 9.12471C24 10.2494 24 12.0596 24 15.68V16.32C24 19.9404 24 21.7506 22.8753 22.8753C21.7506 24 19.9404 24 16.32 24H15.68C12.0596 24 10.2494 24 9.12471 22.8753C8 21.7506 8 19.9404 8 16.32V15.68ZM16.306 19.1109C12.7027 19.1109 10.5166 16.6062 10.4309 12.4442H12.2559C12.3128 15.5015 13.7012 16.7971 14.7655 17.0635V12.4442H16.5144V15.0827C17.5409 14.9687 18.6155 13.7686 18.9766 12.4442H20.6981C20.4226 14.0728 19.2528 15.2729 18.4263 15.7679C19.2534 16.1682 20.5843 17.2159 21.0976 19.1109H19.2055C18.806 17.8441 17.8273 16.863 16.515 16.7298V19.1109H16.306Z" fill="white"/>
</svg>
