<svg width="32" height="32" viewBox="0 0 32 32" fill="none" xmlns="http://www.w3.org/2000/svg">
<path fill-rule="evenodd" clip-rule="evenodd" d="M16 32C24.8365 32 32 24.8365 32 16C32 7.16345 24.8365 0 16 0C7.16345 0 0 7.16345 0 16C0 24.8365 7.16345 32 16 32ZM24 16C24 16 24 13.21 23.6344 11.8735C23.4336 11.137 22.84 10.5565 22.084 10.357C20.7168 10 16 10 16 10C16 10 11.2856 10 9.91602 10.357C9.16321 10.5535 8.56885 11.1347 8.3656 11.8735C8 13.21 8 16 8 16C8 16 8 18.79 8.3656 20.1265C8.56641 20.863 9.16003 21.4435 9.91602 21.643C11.2856 22 16 22 16 22C16 22 20.7168 22 22.084 21.643C22.8368 21.4465 23.4312 20.8653 23.6344 20.1265C24 18.79 24 16 24 16ZM19.2 16L14.4 18.625V13.375L19.2 16Z" fill="white"/>
</svg>
